<?xml version="1.0" encoding="UTF-8" standalone="no"?>
<svg
   xmlns:dc="http://purl.org/dc/elements/1.1/"
   xmlns:cc="http://creativecommons.org/ns#"
   xmlns:rdf="http://www.w3.org/1999/02/22-rdf-syntax-ns#"
   xmlns:svg="http://www.w3.org/2000/svg"
   xmlns="http://www.w3.org/2000/svg"
   width="2000"
   height="2000"
   viewBox="0 0 529.16665 529.16668"
   version="1.1"
   id="svg8">
  <defs
     id="defs2" />
  <metadata
     id="metadata5">
    <rdf:RDF>
      <cc:Work
         rdf:about="">
        <dc:format>image/svg+xml</dc:format>
        <dc:type
           rdf:resource="http://purl.org/dc/dcmitype/StillImage" />
        <dc:title></dc:title>
      </cc:Work>
    </rdf:RDF>
  </metadata>
  <rect
     style="fill:#ffffff;stroke-width:2.64599;stroke-linecap:round"
     id="rect26"
     width="529.16669"
     height="529.16663"
     x="-1.100586e-05"
     y="1.9511719e-05" />
  <g
     id="layer1">
    <g
       id="g488"
       transform="matrix(0.82581648,0,0,0.82581648,46.086056,46.086055)"
       style="stroke-width:1.21092">
      <path
         id="rect10-1-4-6-2-3-8-5-5"
         style="fill:#000000;stroke-width:3.20409;stroke-linecap:round"
         d="m 264.58333,343.3499 h 78.76655 v 78.76656 h -78.76655 z m 78.76651,0 h 78.76655 v 78.76656 h -78.76655 z m -78.76651,-78.76654 h 78.76655 v 78.76656 h -78.76655 z m 0,-78.76656 h 78.76655 v 78.76656 h -78.76655 z m 157.53308,236.29964 h 78.76656 V 500.883 h -78.76656 z m 0,-78.76654 h 78.76656 v 78.76656 H 422.11641 Z M 264.58333,107.05023 h 78.76655 v 78.76656 h -78.76655 z m -78.76656,0 h 78.76656 v 78.76656 h -78.76656 z m -1e-5,236.29967 h 78.76655 v 78.76656 H 185.81676 Z M 422.11644,264.58336 H 500.883 v 78.76656 H 422.11644 Z M 107.05022,422.11644 h 78.76655 V 500.883 h -78.76655 z m 78.76655,0 h 78.76656 V 500.883 h -78.76656 z m 78.76659,0 h 78.76655 V 500.883 h -78.76655 z m 78.76648,0 h 78.76655 V 500.883 H 343.34984 Z M 107.05022,264.58336 h 78.76655 v 78.76656 H 107.05022 Z M 343.3499,28.283673 h 78.76656 V 107.05023 H 343.3499 Z m 78.76654,8e-6 H 500.883 v 78.766559 h -78.76656 z m 0,78.766549 H 500.883 v 78.76656 h -78.76656 z m 0,78.76656 H 500.883 v 78.76655 h -78.76656 z m -315.06622,0 h 78.76655 v 78.76655 H 107.05022 Z M 185.81677,28.283669 h 78.76656 V 107.05023 H 185.81677 Z M 28.283671,343.3499 h 78.766549 v 78.76656 H 28.283671 Z m 0,-157.53311 h 78.766549 v 78.76655 H 28.283671 Z M 107.05022,28.283669 h 78.76655 V 107.05023 H 107.05022 Z M 28.283671,264.58336 h 78.766549 v 78.76656 H 28.283671 Z m 0,157.53308 H 107.05022 V 500.883 H 28.283671 Z m 0,-315.06621 h 78.766549 v 78.76656 H 28.283671 Z M 264.58333,28.283669 h 78.76655 v 78.766561 h -78.76655 z m -236.299663,8e-6 H 107.05022 V 107.05023 H 28.283667 Z" />
    </g>
  </g>
</svg>
